<?xml version="1.0" encoding="UTF-8"?>
<svg version="1.0" viewBox="0 0 500 404.22" xmlns="http://www.w3.org/2000/svg">
 <path d="m138.25 0.0072002a10.536 10.536 0 0 0-7.4495 3.0859l-127.71 127.71a10.536 10.536 0 0 0-3.0859 7.4495 10.538 10.538 0 0 0 3.0859 7.4515l127.71 127.71a10.536 10.536 0 0 0 14.9 0 10.536 10.536 0 0 0 0-14.9l-109.73-109.73h325.78c64.843 0 117.18 52.338 117.18 117.18 0 64.843-52.338 117.18-117.18 117.18h-31.93a10.536 10.536 0 0 0-10.535 10.535 10.536 10.536 0 0 0 10.535 10.537h31.93c76.232 0 138.25-62.024 138.25-138.25 0-76.232-62.024-138.25-138.25-138.25h-325.78l109.73-109.73a10.536 10.536 0 0 0 0-14.9 10.536 10.536 0 0 0-7.4515-3.0859z" fill="#999999"/>
</svg>
