<?xml version="1.0" encoding="UTF-8"?>
<svg version="1.0" viewBox="0 0 500 150.2" xmlns="http://www.w3.org/2000/svg">
 <path d="m194.42 98.505c1.4419 0.31241 3.1241 0.31241 5.6475 0.31241 6.4886 0 12.256-2.8117 12.256-10.201 0-7.0894-5.7676-9.901-12.977-9.901h-4.9265zm0-30.977h4.4459c7.0894 0 10.814-3.5687 10.814-8.9759 0-5.5153-3.4846-8.4352-9.4926-8.4352-3.004 0-4.6862 0.21629-5.7676 0.54072zm-14.9-29.403c4.0854 0 11.896-0.01202 19.466-0.01202 9.2522 0 14.539-0.19225 19.225 3.2082 4.566 3.3404 6.9692 8.3991 6.9692 15.104 0 6.3804-1.4419 13.446-9.8529 16.474v0.21629c7.57 0.9132 13.338 8.2069 13.338 17.615 0 6.7049-2.283 12.653-6.4886 16.221-4.8064 4.2056-9.853 5.3471-26.315 5.3471-7.4498 0-12.977 0.012-16.342 0.012v-74.186m113.19 47.042c0-8.9999-1.0814-15.032-7.57-15.032-6.6087 0-7.9305 5.8878-7.9305 15.128 0 9.5525 2.4032 15.032 7.8103 15.032 5.4072 0 7.6902-4.7703 7.6902-15.128zm-7.6902 27.18c-16.462 0-21.749-10.033-21.749-26.904 0-16.858 6.1281-27.637 22.47-27.637 16.462 0 21.508 10.983 21.508 26.783 0 18.997-5.7676 27.757-22.229 27.757m57.196-31.47c0-4.4339-0.96128-10.31-6.4886-10.31-5.4072 0-7.57 5.4312-7.57 15.092 0 7.9185 1.5621 14.119 7.57 14.119 5.8878 0 6.4886-8.2309 6.4886-11.079zm14.78 23.779c0 10.201 0.24032 18.745-4.8064 24.152-4.8064 4.9265-12.737 5.7676-19.225 5.7676-5.287 0-12.136-1.0814-15.981-3.2443-1.2016-0.72095-1.2016-2.1629-0.72094-3.7249 0.48063-1.4419 1.8024-6.1281 2.1629-6.9692 0.48064-1.478 2.1629-1.55 2.6435-1.2857 2.8838 1.2857 6.8491 1.8865 11.175 1.8865 6.4886 0 9.853-0.60078 9.853-10.538v-3.3644h-0.24032c-2.7637 3.6048-5.287 5.0106-10.334 5.0106-13.818 0-18.384-11.055-18.384-26.255 0-17.147 4.6862-28.009 19.826-28.009 6.008 0 9.2522 3.052 11.415 7.3898l1.0814-4.9385s0.24031-1.2497 2.1629-1.2497h6.7289c2.0427 0 2.8838 0.48064 3.004 1.4659 0 0.99731-0.36048 7.534-0.36048 14.371v29.535m36.648-23.779c0-4.4339-0.96126-10.31-6.4886-10.31-5.4072 0-7.57 5.4312-7.57 15.092 0 7.9185 1.5621 14.119 7.57 14.119 6.0079 0 6.4886-8.2309 6.4886-11.079zm14.78 23.779c0 10.201 0.24031 18.745-4.8064 24.152-4.6862 4.9265-12.737 5.7676-19.105 5.7676-5.4072 0-12.256-1.0814-16.101-3.2443-1.0814-0.72095-1.0814-2.1629-0.6008-3.7249 0.36048-1.4419 1.8024-6.1281 2.0427-6.9692 0.48064-1.478 2.1629-1.55 2.7637-1.2857 2.7636 1.2857 6.8491 1.8865 11.055 1.8865 6.4886 0 9.853-0.60078 9.853-10.538v-3.3644h-0.24032c-2.6435 3.6048-5.287 5.0106-10.214 5.0106-13.938 0-18.504-11.055-18.504-26.255 0-17.147 4.6862-28.009 19.826-28.009 6.008 0 9.2522 3.052 11.535 7.3898l0.96126-4.9385s0.24032-1.2497 2.1629-1.2497h6.8491c1.9225 0 2.7636 0.48064 2.8838 1.4659 0 0.99731-0.36047 7.534-0.36047 14.371v29.535m35.447-25.378c0-3.6408-0.24031-10.009-6.1281-10.009-5.6475 0-6.6087 5.9599-6.8491 10.009zm-12.497 10.021c0.48063 6.801 3.4846 10.995 9.9732 10.995 4.2056 0 4.4459-0.2283 10.334-2.295 0.96127-0.33644 2.7637-0.57676 3.2443 0.73297 0.6008 1.526 2.0427 6.032 2.5233 7.2095 0.72095 2.0187-1.9225 3.064-1.9225 3.064-4.566 2.235-10.093 3.2924-16.221 3.2924-15.26 0-23.912-10.189-23.912-26.543 0-13.169 5.0467-27.721 22.71-27.721 16.942 0 19.946 13.061 19.946 25.906 0 2.7637-0.36047 5.4672-2.8838 5.4672l-23.791-0.10814m-177.84 9.1561c5.7676 0 6.008 0 7.3297 9.4924 0.36048 2.5354-1.8024 4.3858-4.6862 4.3858h-11.776c-3.9652 0-7.6902-4.2897-7.8103-8.2429v-64.513c0-0.8291 0.6008-1.502 1.4419-1.502h11.055c0.84111 0 1.5621 0.67289 1.5621 1.502v56.343c0 2.0787 0.24031 2.5354 2.8838 2.5354m239.72-40.638c-2.1629-0.02403-7.8103-0.80506-13.217 6.1281h-0.36048l-0.6008-4.6982-12.737 0.13217v51.452c0 0.82909 0.60079 1.502 1.4419 1.502h12.256c0.8411 0 1.5621-0.67288 1.5621-1.502l-0.12016-26.147c0-1.3818 0.12016-3.2803 0.24032-4.3618 0.48064-6.4886 2.1629-8.8918 7.6902-8.8918 1.8024 0 5.0467 0.92522 6.4886 1.3938 1.5621 0.46862 2.4032-1.2497 2.4032-1.2497s1.2016-6.9932 1.6822-9.6607c0.36048-2.6675-4.566-4.0734-6.7289-4.0974" fill="#003366"/>
 <path d="m150.2 127.73c0 12.497-10.093 22.47-22.47 22.47h-105.2c-12.448 0-22.53-9.9732-22.53-22.47v-105.2c0-12.436 10.087-22.53 22.53-22.53h105.2c12.376 0 22.47 10.089 22.47 22.53v105.2" fill="#ff6600"/>
 <path d="m59.022 28.333c-16.582 0-30.028 13.446-30.04 30.04v32.96c0 16.594 13.458 30.028 30.04 30.028h32.335c16.594 0 30.004-13.434 30.004-30.028v-21.292c0-3.3164-2.6555-6.0079-5.9719-6.0079h-5.1788c-3.1722 0-5.7556-2.4753-5.9719-5.5874l-0.036-0.0721c0-16.594-13.446-30.04-30.04-30.04zm-0.74499 24.368h17.015c3.1842 0 5.7796 2.5834 5.7796 5.7796 0 3.1842-2.5954 5.7796-5.7796 5.7796h-17.015c-3.1842 0-5.7796-2.5954-5.7796-5.7796 0-3.1962 2.5954-5.7796 5.7796-5.7796zm-0.03605 33.825h34.137c3.016 0 5.4792 2.4272 5.4792 5.4432s-2.4633 5.4913-5.4792 5.4913h-34.137c-3.016 0-5.4432-2.4753-5.4432-5.4913s2.4272-5.4432 5.4432-5.4432z" fill="#ffffff"/>
</svg>
