<?xml version="1.0" encoding="UTF-8"?>
<svg version="1.0" viewBox="0 0 500 97.637" xmlns="http://www.w3.org/2000/svg">
 <path d="m274.86 32.448c-7.5139-0.80236-14.015 1.4744-19.511 8.0831v-40.531l-19.899 2.4094v93.814h19.899v-5.5685c2.6836 1.9156 5.2942 4.2221 8.3482 5.3148 11.594 4.1558 26.883 0.76807 32.231-14.74 3.4334-9.9483 3.3443-20.148 0.75894-30.208-2.8666-11.176-10.305-17.346-21.829-18.573zm2.9739 40.63c-0.87551 6.1857-5.7994 9.4271-11.645 8.9722-1.4607-0.1143-2.782-0.41375-3.9683-0.8778-4.7113-2.7043-6.1354-7.2327-6.5492-10.077-5e-3 0.0023-9e-3 0.0023-9e-3 0.0046-0.3223-4.4004-0.66978-13.601 1.4767-17.949 1.8219-3.3328 5.0016-5.1479 9.2191-5.2873 5.9914-0.19659 10.525 2.7752 11.416 8.8556 0.79093 5.3582 0.8275 11.005 0.0594 16.358z" fill="#3b5998"/>
 <path d="m345.39 33.607c-6.9149-1.8493-13.899-1.8265-20.798 0.01143-10.333 2.75-17.257 9.2877-19.488 19.687-1.2184 5.6737-1.4607 11.706-1.1384 17.524 0.73607 13.309 8.9654 22.789 21.74 25.733 0.17831 0.04343 0.36575 0.07544 0.54862 0.11658h-5e-3s0.0366 0.0069 0.0937 0.01829c0.49147 0.0983 0.98294 0.18974 1.4767 0.26516 0.16459 0.01372 0.33376 0.02743 0.49604 0.04343h0.0137c0.61949 0.1143 1.3624 0.19888 2.1442 0.2606 2.5008 0.26516 5.6828 0.4549 8.339 0.14173 0.0183 0 0.0274-0.0046 0.0411-0.0069 0.13487-0.0023 0.27203-0.0023 0.40689-0.01143 13.19-0.68578 23.198-9.0019 26.119-21.76 1.6025-6.9972 1.6025-14.029 0.0526-21.031-2.4254-10.991-9.0911-18.061-20.043-20.992zm0.84121 38.463c-0.0663 0.41375-0.13487 0.82294-0.22858 1.2298-1.3213 5.8703-5.5845 9.0476-11.27 8.7825-6.1126-0.27888-10.305-3.8518-10.895-9.9598-0.42518-4.4621-0.45947-9.0179-0.0892-13.483 0.58062-7.0475 4.9879-10.902 11.599-10.771 5.4336 0.10516 9.3037 3.1843 10.685 8.4077 1.2527 5.2553 0.32231 14.598 0.19887 15.794z" fill="#3b5998"/>
 <path d="m46.674 33.278h-14.203v-9.4454c1.0378-8.9288 15.787-7.2327 15.787-7.2327l0.0046-0.61034-0.0046-0.06858v-14.667h-0.0023v-0.00229h-0.01143c-0.50746-0.12115-29.337-6.9629-35.063 14.98 0 0.0046 0 0.01143-0.0069 0.016-0.01143 0.04801-0.02515 0.09601-0.03657 0.14402-0.90065 2.7432-0.83894 15.307-0.82751 16.886h-12.31v16.8h13.073v45.695h19.038v-45.695h14.562l1.639-16.8z" fill="#3b5998"/>
 <path d="m92.074 41.316c-0.23317-0.25832-0.46404-0.50747-0.66292-0.7155v-0.0023c-0.032-0.032-0.05715-0.05944-0.08915-0.09144-0.2766-0.28802-0.4709-0.48004-0.4709-0.48004-4.4827-4.5581-6.1743-5.692-9.6854-6.7275-13.503-3.9775-26.65 3.0928-30.812 16.678-2.558 8.3482-2.5946 16.941-1.095 25.395 3.2391 18.308 16.857 24.439 31.369 21.417 4.453-0.92808 7.763-3.7009 10.833-7.5619 0 0 0.2766-0.33831 0.61491-0.99666v8.0556h18.571v-62.936h-18.571v7.9665zm-1.6345 31.671c-0.62177 5.82-5.3308 9.3151-10.897 9.0957-5.7034-0.22174-9.4774-3.2757-10.71-8.7482-1.4767-7.7859 0.25146-17.037 0.39775-17.787 1.4904-5.2256 5.2919-7.811 10.87-7.6807 5.4771 0.12344 9.6992 3.3648 10.317 9.0385 0.57834 5.3079 0.59205 10.771 0.02286 16.082z" fill="#3b5998"/>
 <path d="m167.37 91.775c-0.86179-3.1522-1.8425-6.2612-2.7912-9.2648l-0.89608-3.3397s-23.276 11.174-26.906-10.058c-0.33603-3.5043-0.23316-7.1207 0.24917-10.579 0.90522-6.5263 4.8873-10.022 11.222-10.621 2.1397-0.20345 4.3661-0.10058 6.4852 0.25831 2.8848 0.4869 5.7011 1.3556 8.858 2.1351 1.0973-3.358 2.2197-6.6795 3.2643-10.024 0.16459-0.52348 0.30174-0.97609 0.40918-1.3807h2e-3l0.52348-2.0094c-0.13029-0.26746-0.44804-0.54405-0.87322-0.81379v0.0023c-0.53493-0.44804-1.447-0.82065-2.8712-1.3419-0.5692-0.20802-1.1407-0.39318-1.7122-0.57148-0.51205-0.1623-0.8458-0.2583-0.8458-0.2583h2e-3c-6.1149-1.7488-12.392-1.8836-18.77-1.2116-13.441 1.4196-22.565 9.3517-25.095 22.446-1.3281 6.8898-1.2664 13.864 0.25831 20.775 2.2837 10.349 8.5562 17.035 18.754 20.025 6.6543 1.9499 13.473 2.0482 20.258 0.9898 2.8528-0.44575 6.9447-1.9248 9.882-2.9785l1.1178-0.39318-0.52805-1.7899z" fill="#3b5998"/>
 <path d="m228.64 67.154c-0.0892-4.3569-0.0297-8.7345-0.6469-13.016-1.6985-11.741-8.8465-19.17-20.407-21.111-4.4118-0.73836-9.0774-0.64006-13.56-0.2126-12.269 1.1704-21.582 8.8122-23.491 20.313-1.159 6.9767-1.3076 14.381-0.37032 21.387 1.415 10.541 6.5469 17.254 15.426 20.478h5e-3c0.0389 0.0023 0.0777 0.0091 0.11659 0.01372-5e-3 0.0046-2e-3 0.0046-5e-3 0.0069 4.0529 1.2116 23.888 6.3983 41.373-2.3865l-0.70178-2.574c-7e-3 0.0046-0.0183 0.0046-0.0251 0.0046-0.80921-3.4334-1.783-6.8304-2.6996-10.234l-0.0983-0.33374s-0.36346 0.1303-1.0081 0.33603c-0.0137 0.0023-0.032 0.0023-0.0457 0.0046-0.7635 0.19888-1.5179 0.43204-2.2677 0.68349-0.13944 0.04572-0.2766 0.08915-0.41603 0.1303-2.6472 0.74521-6.4303 1.6642-10.426 2.1785-3.3534 0.33831-6.7412 0.35203-10.161 0.05944-5.5525-0.91894-9.802-3.8929-9.5986-10.925h3.1728c10.886 0 21.769 0 32.656-0.0023 0.25831 0 0.52119 0.0023 0.7795-0.0023l-2e-3 0.0046s2.3385-0.02972 2.4368-0.05258c0 0-2e-3 -0.6172 0-0.69264zm-17.899-8.5814h-21.502c0.11201-4.2769 0.64692-8.2522 4.4484-10.673 4.0369-2.5649 8.4968-2.6609 12.648-0.36117 4.1969 2.318 4.5261 6.5058 4.405 11.034z" fill="#3b5998"/>
 <path d="m478.89 96.329h21.109l-19.895-31.212 19.895-31.109h-21.109l-18.334 28.662v-62.61l-19.9 2.4117v93.818h19.9v-28.712z" fill="#3b5998"/>
 <path d="m413.26 33.598c-6.9149-1.8516-13.903-1.8288-20.802 0.0091-10.328 2.7523-17.252 9.2877-19.483 19.684-1.2184 5.676-1.4607 11.706-1.1384 17.526 0.73152 13.309 8.9654 22.791 21.735 25.733 0.18287 0.04343 0.37032 0.07544 0.5532 0.11658h-5e-3s0.032 0.0069 0.0892 0.01829c0.49149 0.0983 0.98752 0.18974 1.4813 0.26288 0.16459 0.016 0.33146 0.032 0.49606 0.04115 5e-3 0.0046 9e-3 0.0046 0.0137 0.0046 0.62406 0.1143 1.3624 0.20116 2.1397 0.26289 2.5054 0.26516 5.6919 0.4549 8.3437 0.14173 0.0137-0.0046 0.0229-0.0046 0.0411-0.0091 0.13943-0.0023 0.27204-0.0023 0.40234-0.0091 13.192-0.68807 23.203-9.0065 26.124-21.76 1.6025-6.9972 1.6025-14.031 0.0571-21.033-2.4346-10.991-9.0956-18.061-20.048-20.99zm0.83893 38.46c-0.0663 0.41604-0.13486 0.82294-0.22859 1.2321-1.3259 5.8703-5.5845 9.0431-11.27 8.7825-6.1126-0.28574-10.305-3.8563-10.895-9.962-0.42521-4.4598-0.46409-9.0156-0.0937-13.48 0.58977-7.0498 4.9925-10.904 11.608-10.774 5.4245 0.10515 9.2991 3.1842 10.68 8.4077 1.2481 5.253 0.32462 14.6 0.19888 15.794z" fill="#3b5998"/>
</svg>
