<svg xmlns:sketch="http://www.bohemiancoding.com/sketch/ns" xmlns:rdf="http://www.w3.org/1999/02/22-rdf-syntax-ns#" xmlns="http://www.w3.org/2000/svg" height="505.01" width="500" version="1.1" xmlns:cc="http://creativecommons.org/ns#" viewBox="0 0 500 505.01346" xmlns:dc="http://purl.org/dc/elements/1.1/">
 <desc>Created with Sketch.</desc>
 <g transform="matrix(1.01 0 0 1.01 .000057099 -.000070470)">
  <path style="fill:#d94c4c" d="m12.143 305.34c-3.383 0-6.4069-2.3774-7.1036-5.8251-11.291-56.03-3.5265-112.47 22.461-163.23 1.8244-3.5626 6.1914-4.9775 9.754-3.146 3.5698 1.8244 4.9775 6.1986 3.1532 9.7612-24.471 47.815-31.783 100.98-21.146 153.76 0.79009 3.9289-1.7526 7.7572-5.6743 8.5473-0.48842 0.0934-0.96965 0.14365-1.4437 0.14365" sketch:type="MSShapeGroup"/>
  <path style="fill:#d94c4c" d="m54.036 114.2c-1.4796 0-2.9808-0.45251-4.2665-1.3934-3.2394-2.3631-3.9432-6.9025-1.5874-10.142 36.89-50.574 91.018-85.251 152.41-97.634 54.47-10.989 109.57-3.8785 159.32 20.557 3.5985 1.7669 5.0853 6.1124 3.3184 9.7109s-6.1124 5.0853-9.7037 3.3184c-46.86-23.02-98.75-29.714-150.06-19.357-57.83 11.664-108.81 44.324-143.56 91.965-1.415 1.9465-3.62 2.9808-5.861 2.9808" sketch:type="MSShapeGroup"/>
  <path style="fill:#d94c4c" d="m487.77 209.38c-3.383 0-6.4069-2.3774-7.1036-5.8251-11.981-59.458-45.89-111.37-95.478-146.19-3.2824-2.3056-4.0725-6.8307-1.7741-10.113 2.2984-3.2753 6.8235-4.0725 10.106-1.7669 52.648 36.969 88.648 92.088 101.37 155.21 0.79009 3.9289-1.7526 7.7572-5.6742 8.5473-0.48842 0.10055-0.96965 0.14365-1.4437 0.14365" sketch:type="MSShapeGroup"/>
  <path style="fill:#a7d94c" d="m187.33 491.92c-1.7023 0-3.4046-0.59615-4.7836-1.8028-3.0095-2.6504-3.304-7.2329-0.6608-10.242 55.335-63.02 77.579-146.24 61.038-228.34-0.79727-3.9289 1.7454-7.7572 5.6742-8.5473 3.9217-0.79726 7.75 1.7526 8.5401 5.6814 17.447 86.572-6.0118 174.34-64.356 240.78-1.4365 1.6376-3.4405 2.4708-5.4516 2.4708" sketch:type="MSShapeGroup"/>
  <path style="fill:#d94c4c" d="m155.97 481.14c-1.8244 0-3.6488-0.68235-5.0637-2.0614-2.8659-2.8012-2.9233-7.3909-0.12929-10.264 22.28-22.862 39.461-49.524 51.054-79.253 1.4581-3.735 5.6599-5.5881 9.3948-4.1228 3.7278 1.4581 5.5737 5.6671 4.1156 9.3948-12.304 31.553-30.533 59.853-54.178 84.115-1.4222 1.4581-3.304 2.1907-5.193 2.1907" sketch:type="MSShapeGroup"/>
  <path style="fill:#d94c4c" d="m221.3 498.45c-1.5586 0-3.1316-0.50278-4.4604-1.5371-3.1532-2.4708-3.7134-7.0318-1.2498-10.185 53.388-68.357 74.189-156.27 57.073-241.2l-0.43096-2.1117c-3.3974-11.377-14.99-18.502-26.849-16.118-11.499 2.32-19.307 12.821-18.596 24.227l0.63207 3.1244c6.8378 33.938 6.6583 68.177-0.53151 101.76-0.84037 3.9217-4.6974 6.4141-8.6119 5.5809-3.9217-0.84037-6.4141-4.6974-5.5737-8.6191 6.2848-29.362 6.8809-59.256 1.7813-88.971l-0.11492 0.0215-1.3862-6.8666c-4.1084-20.413 9.1363-40.373 29.535-44.489 20.399-4.1156 40.345 9.1434 44.453 29.556l1.2857 6.3638-0.15801 0.0503c15.672 87.096-6.4141 176.63-61.081 246.62-1.4293 1.8316-3.5626 2.7868-5.7174 2.7868" sketch:type="MSShapeGroup"/>
  <path style="fill:#d94c4c" d="m127.32 466.78c-1.9393 0-3.8714-0.76854-5.3008-2.2984-2.7366-2.9305-2.5786-7.5202 0.34476-10.257 48.554-45.451 72.228-111.8 63.336-177.49-0.5387-3.972 2.241-7.6279 6.213-8.1666 3.9576-0.5387 7.6207 2.2482 8.1594 6.2129 9.5241 70.339-15.816 141.38-67.797 190.04-1.4006 1.3144-3.1819 1.9608-4.956 1.9608" sketch:type="MSShapeGroup"/>
  <path style="fill:#d94c4c" d="m316.14 310.75c-3.9935 0-7.2401-3.2322-7.2544-7.2401-0.0575-21.332-2.2482-42.859-6.5002-63.983l-0.56024-2.7797c-3.2896-12.85-11.104-23.882-22.223-31.273-11.916-7.9224-26.188-10.724-40.215-7.8937-21.031 4.2449-37.457 20.564-41.839 41.58-0.81882 3.9289-4.6543 6.4428-8.5832 5.624-3.9217-0.81882-6.4356-4.6615-5.6168-8.5832 5.5665-26.712 26.439-47.455 53.173-52.85 17.82-3.5985 35.97-0.0359 51.104 10.027 15.141 10.07 25.455 25.426 29.046 43.254l1.2426 6.1483-0.12929 0.0431c3.6703 20.068 5.5522 40.438 5.6096 60.65 0.007 4.0079-3.225 7.2688-7.2329 7.276h-0.0215z" sketch:type="MSShapeGroup"/>
  <path style="fill:#d94c4c" d="m257.71 500c-1.4078 0-2.8371-0.40941-4.0869-1.2713-3.304-2.2625-4.1515-6.7732-1.889-10.084 30.03-43.914 49.079-94.918 55.062-147.48 0.45968-3.9792 4.051-6.8378 8.0301-6.3853 3.9792 0.45251 6.8378 4.051 6.3853 8.0302-6.256 54.904-26.145 108.17-57.511 154.03-1.4006 2.0542-3.6775 3.1603-5.9903 3.1603" sketch:type="MSShapeGroup"/>
  <path style="fill:#d94c4c" d="m101.42 449.29c-2.0327 0-4.051-0.84754-5.4875-2.5067-2.6216-3.0311-2.2912-7.6136 0.73262-10.235 46.486-40.294 68.436-102.17 57.92-162.52l-1.0199-4.4748c-10.716-53.187 23.81-105.19 76.969-115.91 8.9639-1.81 18.093-2.3702 27.129-1.6664 3.9935 0.31604 6.9743 3.8068 6.6654 7.8003-0.30885 3.9935-3.778 6.9959-7.7931 6.6726-7.6998-0.60334-15.486-0.1221-23.135 1.415-44.094 8.8992-73.148 51.119-66.267 95.162l0.81882 3.6272c13.475 66.856-10.199 136.16-61.785 180.86-1.3719 1.1923-3.067 1.7741-4.7477 1.7741" sketch:type="MSShapeGroup"/>
  <path style="fill:#d94c4c" d="m296.4 495.62c-1.2498 0-2.5067-0.32321-3.6631-0.99838-3.4548-2.0327-4.6112-6.4715-2.5857-9.9335 44.432-75.784 59.335-164.97 41.968-251.14l-0.55306-2.7222c-5.4013-22.912-20.154-42.492-40.804-54.013-3.4979-1.9537-4.7549-6.371-2.8012-9.8689 1.9465-3.5051 6.371-4.7621 9.8617-2.8084 25.168 14.035 42.866 38.283 48.554 66.525l1.1564 5.7389-0.0862 0.0359c16.283 87.879 0.46687 178.42-44.784 255.59-1.3503 2.3056-3.7709 3.5913-6.2632 3.5913" sketch:type="MSShapeGroup"/>
  <path style="fill:#d94c4c" d="m78.388 429c-2.0973 0-4.1803-0.90501-5.6168-2.6576-2.5355-3.1029-2.083-7.671 1.0199-10.214 19.3-15.823 34.29-36.502 43.333-59.802 1.4509-3.735 5.6455-5.5881 9.3877-4.1372 3.7278 1.4509 5.5809 5.6527 4.13 9.3877-9.9479 25.628-26.425 48.375-47.664 65.778-1.3503 1.1061-2.9736 1.6448-4.5897 1.6448" sketch:type="MSShapeGroup"/>
  <path style="fill:#d94c4c" d="m371.63 375.38-1.1851-0.10056c-3.9576-0.64643-6.6295-4.3814-5.9831-8.339 7.6064-46.198 6.7301-93.101-2.6001-139.41l-0.42378-2.1189c-13.4-60.52-73.04-99.57-134.02-87.27-60.41 12.19-100.1 70.32-90.04 130.69l0.84755 3.8283c3.2322 16.017 3.9935 32.307 2.2769 48.411-0.42377 3.9863-3.9935 6.8809-7.9799 6.4428-3.9863-0.42377-6.8666-4.0007-6.4428-7.987 1.415-13.238 0.97683-26.626-1.2929-39.849l-0.91937-4.1228c-14.02-69.578 31.144-137.6 100.69-151.63 69.528-14.02 137.51 31.165 151.53 100.74l0.905 4.4891-0.0359 0.0359c8.8418 46.572 9.4595 93.69 1.81 140.13-0.58179 3.5482-3.6631 6.0765-7.1467 6.0765" sketch:type="MSShapeGroup"/>
  <path style="fill:#d94c4c" d="m337.01 483.98c-1.063 0-2.1476-0.23702-3.1675-0.73262-3.6057-1.7597-5.0996-6.098-3.3471-9.7037 10.839-22.266 19.573-45.645 25.951-69.492 1.0343-3.8714 5.0206-6.1698 8.8849-5.1356 3.8714 1.0415 6.1627 5.0206 5.1284 8.8921-6.6224 24.737-15.68 48.993-26.928 72.092-1.2498 2.5786-3.8355 4.0797-6.5218 4.0797" sketch:type="MSShapeGroup"/>
  <path style="fill:#d94c4c" d="m379.21 462.86c-0.86191 0-1.7382-0.15084-2.5857-0.48124-3.7421-1.4293-5.6168-5.624-4.1874-9.3661 27.998-73.248 34.714-152.72 19.45-229.94l-0.31604-1.5299c-4.1515-20.628-12.491-39.634-24.766-56.498-2.3631-3.2394-1.6448-7.7788 1.5874-10.135 3.2394-2.3631 7.7788-1.6448 10.135 1.5874 13.001 17.856 21.979 37.881 26.719 59.572l0.0215 0.0216 0.53151 2.5857c16.204 80.402 9.3518 163.22-19.817 239.52-1.0989 2.8946-3.8571 4.6687-6.7732 4.6687" sketch:type="MSShapeGroup"/>
  <path style="fill:#d94c4c" d="m346.17 139.97c-1.6161 0-3.2465-0.53869-4.5897-1.6448-33.701-27.61-77.493-38.513-120.14-29.908-10.989 2.2122-21.677 5.6814-31.761 10.307-3.6416 1.6736-7.944 0.0718-9.6103-3.5698-1.6736-3.6416-0.0718-7.9511 3.5698-9.6175 11.097-5.0925 22.855-8.9136 34.936-11.349 46.931-9.4738 95.119 2.5283 132.2 32.911 3.1029 2.5426 3.5554 7.1108 1.0199 10.214-1.4365 1.7526-3.5195 2.6576-5.6168 2.6576" sketch:type="MSShapeGroup"/>
  <path style="fill:#d94c4c" d="m58.288 406.19c-2.1189 0-4.2234-0.92655-5.6599-2.715-2.5067-3.1172-2.0111-7.6854 1.1133-10.199 32.508-26.13 48.095-67.279 41.207-108.13l-0.79009-3.62c-11.722-58.18 9.622-117.57 55.692-155.01 3.1029-2.5283 7.671-2.0542 10.199 1.063 2.5211 3.1101 2.047 7.6782-1.0558 10.206-40.84 33.184-60.298 85.344-51.356 136.94l0.85473 3.9002c9.5529 47.376-7.9511 95.644-45.667 125.96-1.3431 1.0774-2.9449 1.6017-4.5394 1.6017" sketch:type="MSShapeGroup"/>
  <path style="fill:#d94c4c" d="m41.161 381.02c-2.0542 0-4.1013-0.86909-5.5378-2.5642-2.5857-3.0598-2.2122-7.6351 0.84755-10.228 22.575-19.142 33.378-48.669 28.63-77.694l-0.64643-3.0167c-1.9896-9.8545-3.2034-19.925-3.6128-29.923-0.15802-4.0079 2.952-7.3837 6.9528-7.5489 4.0151-0.19393 7.3765 2.952 7.5417 6.9599 0.32322 7.9009 1.1923 15.859 2.5857 23.695l0.84755 3.9289c7.082 35.166-5.5306 71.445-32.925 94.667-1.3575 1.1564-3.0239 1.7238-4.6831 1.7238" sketch:type="MSShapeGroup"/>
  <path style="fill:#d94c4c" d="m432.54 244.94c-3.5338 0-6.6295-2.5929-7.1682-6.1914-0.97684-6.6008-2.1189-13.288-3.4046-19.91l-0.68234-3.2968c-19.08-94.51-111.41-155.91-205.87-136.85-35.195 7.1036-66.877 24.521-91.607 50.379-24.177 25.276-40.108 56.786-46.076 91.111-0.68235 3.9504-4.4317 6.6008-8.3821 5.9041-3.9504-0.68235-6.5936-4.4388-5.9041-8.3893 6.4572-37.177 23.703-71.294 49.883-98.66 26.791-28.012 61.102-46.881 99.22-54.573 100.48-20.276 198.77 43.534 221.76 142.83l0.0862 0.007 1.1133 5.3726c1.6017 7.944 3.0095 16.003 4.1874 23.94 0.58898 3.9648-2.1476 7.6566-6.1124 8.2456l-1.0702 0.079" sketch:type="MSShapeGroup"/>
  <path style="fill:#d94c4c" d="m422.19 428.35c-0.61771 0-1.2498-0.079-1.8747-0.24421-3.8714-1.0343-6.1698-5.0135-5.1356-8.8849 12.426-46.637 17.188-94.703 14.143-142.86-0.25139-4.0007 2.7868-7.4412 6.7876-7.6998 3.9863-0.21548 7.4412 2.7868 7.6926 6.7876 3.1388 49.732-1.7813 99.357-14.609 147.52-0.86909 3.2465-3.7996 5.387-7.003 5.387" sketch:type="MSShapeGroup"/>
  <path style="fill:#d94c4c" d="m26.853 352.79c-1.7669 0-3.5338-0.63925-4.9273-1.9321-2.9377-2.7294-3.1101-7.3191-0.38786-10.257 11.183-12.081 16.218-28.68 13.683-44.834l-0.474-2.25c-11.593-57.53-0.101-116.12 32.35-165 32.458-48.87 81.993-82.176 139.48-93.776 24.134-4.8698 48.633-5.6814 72.81-2.4134 3.972 0.5387 6.7516 4.1946 6.2201 8.1666-0.5387 3.972-4.1946 6.7588-8.1594 6.2201-22.575-3.0526-45.451-2.2984-67.998 2.2553-53.7 10.832-99.96 41.933-130.27 87.588-29.601 44.57-40.526 97.8-30.937 150.31l0.79009 3.7565c4.3167 21.411-1.9824 43.778-16.858 59.838-1.4293 1.5371-3.3758 2.32-5.3223 2.32" sketch:type="MSShapeGroup"/>
  <path style="fill:#d94c4c" d="m464.1 371.46-0.90501-0.0575c-3.972-0.4956-6.7947-4.1156-6.2991-8.0948 6.1842-49.718 4.4819-100-5.0494-149.55l-0.89064-4.209c-14.68-72.84-67.76-132.21-138.55-154.91-3.8212-1.2282-5.9185-5.3151-4.6974-9.1291 1.221-3.814 5.3079-5.9185 9.1219-4.6974 73.787 23.674 129.62 84.532 147.03 159.7h0.0934l1.3 6.177c10.573 52.44 12.605 105.74 6.0549 158.43-0.45969 3.6703-3.5841 6.3566-7.1898 6.3566" sketch:type="MSShapeGroup"/>
 </g>
</svg>
