<?xml version="1.0" encoding="UTF-8"?>
<svg version="1.0" viewBox="0 0 500 505.02" xmlns="http://www.w3.org/2000/svg">
 <path d="m12.265 308.4c-3.4169 0-6.4712-2.4013-7.1748-5.8836-11.404-56.592-3.5619-113.59 22.687-164.87 1.8427-3.5983 6.2535-5.0275 9.8518-3.1776 3.6056 1.8427 5.0275 6.2608 3.1848 9.8591-24.717 48.295-32.102 101.99-21.358 155.31 0.79802 3.9683-1.7702 7.8351-5.7312 8.6331-0.49332 0.0943-0.97938 0.1451-1.4581 0.1451" fill="#d94c4c"/>
 <path d="m54.578 115.34c-1.4944 0-3.0107-0.45706-4.3093-1.4074-3.2719-2.3868-3.9827-6.9717-1.6034-10.243 37.26-51.082 91.931-86.107 153.94-98.613 55.017-11.099 110.67-3.9174 160.92 20.764 3.6346 1.7847 5.1364 6.1737 3.3517 9.8083s-6.1737 5.1364-9.801 3.3517c-47.331-23.251-99.741-30.012-151.56-19.552-58.41 11.781-109.9 44.768-145 92.888-1.4292 1.9661-3.6563 3.0107-5.9198 3.0107" fill="#d94c4c"/>
 <path d="m492.67 211.47c-3.4169 0-6.4712-2.4013-7.1748-5.8836-12.101-60.055-46.351-112.48-96.436-147.65-3.3153-2.3288-4.1133-6.8992-1.7919-10.214 2.3215-3.3082 6.8919-4.1133 10.207-1.7847 53.176 37.34 89.537 93.012 102.38 156.77 0.79801 3.9683-1.7702 7.8351-5.7311 8.6331-0.49333 0.10157-0.97939 0.1451-1.4582 0.1451" fill="#d94c4c"/>
 <path d="m189.21 496.85c-1.7194 0-3.4387-0.60213-4.8316-1.8209-3.0397-2.677-3.3371-7.3054-0.66743-10.344 55.89-63.652 78.358-147.7 61.65-230.63-0.80527-3.9683 1.763-7.8351 5.7312-8.6331 3.961-0.80526 7.8278 1.7702 8.6258 5.7384 17.622 87.441-6.0721 176.09-65.002 243.2-1.451 1.6541-3.475 2.4956-5.5063 2.4956" fill="#a7d94c"/>
 <path d="m157.54 485.96c-1.8427 0-3.6854-0.68921-5.1145-2.0821-2.8947-2.8293-2.9526-7.465-0.13058-10.367 22.504-23.092 39.857-50.021 51.567-80.049 1.4728-3.7725 5.7167-5.6442 9.4891-4.1641 3.7652 1.4728 5.6296 5.724 4.1569 9.4891-12.427 31.87-30.839 60.454-54.722 84.959-1.4364 1.4728-3.3371 2.2127-5.2451 2.2127" fill="#d94c4c"/>
 <path d="m223.52 503.44c-1.5742 0-3.163-0.50783-4.5052-1.5526-3.1848-2.4956-3.7506-7.1023-1.2623-10.287 53.924-69.043 74.933-157.84 57.646-243.62l-0.43529-2.1329c-3.4315-11.491-15.14-18.688-27.118-16.28-11.614 2.3433-19.501 12.949-18.783 24.47l0.63841 3.1557c6.9064 34.278 6.7251 68.861-0.53685 102.78-0.84879 3.961-4.7446 6.4784-8.6983 5.6369-3.961-0.8488-6.4784-4.7446-5.6296-8.7056 6.3478-29.657 6.9499-59.851 1.7992-89.864l-0.11607 0.0217-1.4002-6.9355c-4.1496-20.618 9.228-40.778 29.831-44.935 20.604-4.1569 40.749 9.2351 44.899 29.853l1.2986 6.4276-0.1596 0.0508c15.83 87.97-6.4784 178.41-61.694 249.1-1.4436 1.85-3.5983 2.8148-5.7748 2.8148" fill="#d94c4c"/>
 <path d="m128.59 471.46c-1.9588 0-3.9102-0.77626-5.354-2.3215-2.7641-2.9599-2.6045-7.5956 0.34822-10.36 49.042-45.908 72.952-112.92 63.971-179.27-0.54411-4.0118 2.2635-7.7045 6.2753-8.2486 3.9973-0.54411 7.6972 2.2708 8.2413 6.2752 9.6196 71.044-15.975 142.79-68.477 191.95-1.4146 1.3276-3.2138 1.9805-5.0058 1.9805" fill="#d94c4c"/>
 <path d="m319.31 313.87c-4.0335 0-7.3127-3.2646-7.3272-7.3127-0.0581-21.546-2.2708-43.289-6.5654-64.625l-0.56586-2.8076c-3.3226-12.978-11.215-24.122-22.446-31.587-12.035-8.0019-26.451-10.831-40.618-7.9729-21.242 4.2875-37.833 20.771-42.258 41.997-0.82704 3.9683-4.701 6.5074-8.6693 5.6804-3.961-0.82703-6.5002-4.7083-5.6732-8.6693 5.6224-26.98 26.704-47.932 53.707-53.38 17.999-3.6346 36.331-0.0363 51.617 10.127 15.292 10.171 25.711 25.681 29.337 43.688l1.255 6.21-0.13059 0.0435c3.7071 20.27 5.6079 40.843 5.6659 61.258 7e-3 4.0481-3.2573 7.3417-7.3054 7.349h-0.0217z" fill="#d94c4c"/>
 <path d="m260.3 505.01c-1.422 0-2.8656-0.41351-4.1279-1.284-3.3371-2.2852-4.1931-6.8411-1.908-10.185 30.331-44.354 49.572-95.87 55.615-148.95 0.46428-4.0191 4.0916-6.9064 8.1107-6.4494 4.0191 0.45705 6.9064 4.0916 6.4494 8.1108-6.3188 55.455-26.407 109.25-58.088 155.58-1.4146 2.0748-3.7144 3.192-6.0504 3.192" fill="#d94c4c"/>
 <path d="m102.43 453.79c-2.0531 0-4.0916-0.85605-5.5426-2.5319-2.6479-3.0615-2.3142-7.69 0.73997-10.337 46.953-40.698 69.122-103.19 58.501-164.16l-1.0301-4.5198c-10.823-53.721 24.049-106.24 77.742-117.07 9.0538-1.8282 18.275-2.394 27.401-1.6832 4.0335 0.31921 7.0442 3.845 6.7322 7.8786-0.31195 4.0335-3.8159 7.0661-7.8713 6.7395-7.7771-0.60939-15.642-0.12332-23.367 1.4292-44.536 8.9885-73.881 51.632-66.932 96.117l0.82704 3.6636c13.61 67.527-10.301 137.52-62.405 182.68-1.3856 1.2042-3.0978 1.7919-4.7954 1.7919" fill="#d94c4c"/>
 <path d="m299.37 500.59c-1.2623 0-2.5319-0.32645-3.6998-1.0084-3.4895-2.0531-4.6574-6.5364-2.6117-10.033 44.877-76.545 59.93-166.63 42.389-253.66l-0.55861-2.7495c-5.4555-23.142-20.357-42.918-41.213-54.555-3.533-1.9733-4.8026-6.4349-2.8293-9.9679 1.9661-3.5403 6.4349-4.8099 9.9606-2.8366 25.421 14.175 43.296 38.667 49.042 67.192l1.168 5.7965-0.0871 0.0363c16.447 88.761 0.47154 180.21-45.233 258.16-1.3638 2.3288-3.8087 3.6273-6.326 3.6273" fill="#d94c4c"/>
 <path d="m79.175 433.3c-2.1184 0-4.2222-0.91409-5.6732-2.6843-2.561-3.134-2.1039-7.748 1.0301-10.316 19.494-15.982 34.634-36.868 43.767-60.402 1.4654-3.7725 5.7022-5.6442 9.4819-4.1787 3.7652 1.4654 5.6369 5.7094 4.1714 9.4819-10.047 25.885-26.69 48.861-48.143 66.438-1.3638 1.1172-3.0034 1.6612-4.6358 1.6612" fill="#d94c4c"/>
 <path d="m375.36 379.14-1.197-0.10157c-3.9973-0.65291-6.696-4.4254-6.0431-8.4227 7.6828-46.662 6.7976-94.035-2.6262-140.8l-0.42803-2.1402c-13.534-61.127-73.772-100.57-135.36-88.146-61.016 12.312-101.1 71.025-90.943 132l0.85605 3.8667c3.2646 16.178 4.0335 32.631 2.2998 48.897-0.42803 4.0263-4.0335 6.9499-8.06 6.5074-4.0263-0.42802-6.9355-4.0408-6.5074-8.0672 1.4292-13.37 0.98663-26.893-1.3058-40.248l-0.92859-4.1641c-14.16-70.276 31.456-138.98 101.7-153.16 70.225-14.16 138.89 31.478 153.06 101.75l0.91408 4.5342-0.0363 0.0363c8.9305 47.04 9.5544 94.63 1.8282 141.53-0.58764 3.5838-3.6998 6.1375-7.2184 6.1375" fill="#d94c4c"/>
 <path d="m340.39 488.83c-1.0736 0-2.1692-0.2394-3.1993-0.73997-3.6419-1.7774-5.1508-6.1592-3.3807-9.801 10.947-22.49 19.77-46.103 26.212-70.189 1.0446-3.9102 5.071-6.2317 8.9741-5.1872 3.9102 1.0519 6.2245 5.071 5.1799 8.9813-6.6888 24.985-15.838 49.485-27.198 72.815-1.2623 2.6045-3.8739 4.1206-6.5872 4.1206" fill="#d94c4c"/>
 <path d="m383.01 467.5c-0.87056 0-1.7556-0.15236-2.6117-0.48608-3.7796-1.4436-5.6732-5.6804-4.2294-9.4601 28.279-73.982 35.062-154.26 19.645-232.25l-0.31921-1.5453c-4.1931-20.835-12.616-40.031-25.015-57.065-2.3868-3.2719-1.6612-7.8569 1.6034-10.236 3.2719-2.3868 7.8569-1.6612 10.236 1.6034 13.131 18.036 22.2 38.261 26.987 60.17l0.0217 0.0218 0.53685 2.6117c16.367 81.209 9.4456 164.86-20.016 241.93-1.1099 2.9237-3.8958 4.7156-6.8411 4.7156" fill="#d94c4c"/>
 <path d="m349.64 141.37c-1.6324 0-3.2791-0.5441-4.6358-1.6613-34.039-27.887-78.271-38.899-121.34-30.208-11.099 2.2344-21.895 5.7384-32.08 10.41-3.6781 1.6904-8.0237 0.0725-9.7067-3.6056-1.6904-3.6781-0.0725-8.0309 3.6056-9.714 11.208-5.1436 23.085-9.003 35.286-11.462 47.402-9.5688 96.073 2.5537 133.52 33.241 3.134 2.5681 3.5911 7.1821 1.0301 10.316-1.4509 1.7702-3.5548 2.6843-5.6732 2.6843" fill="#d94c4c"/>
 <path d="m58.874 410.26c-2.1402 0-4.2657-0.93585-5.7167-2.7423-2.5319-3.1485-2.0313-7.7625 1.1244-10.301 32.834-26.392 48.578-67.954 41.62-109.21l-0.79802-3.6563c-11.839-58.764 9.7185-118.75 56.251-156.57 3.134-2.5537 7.748-2.0748 10.301 1.0736 2.5464 3.1413 2.0676 7.7553-1.0664 10.308-41.249 33.517-60.903 86.2-51.872 138.31l0.86331 3.9393c9.6487 47.852-8.0309 96.603-46.126 127.22-1.3565 1.0882-2.9744 1.6178-4.585 1.6178" fill="#d94c4c"/>
 <path d="m41.575 384.84c-2.0748 0-4.1424-0.87781-5.5934-2.5899-2.6117-3.0905-2.2344-7.7117 0.85606-10.33 22.802-19.334 33.713-49.158 28.917-78.474l-0.65292-3.047c-2.0096-9.9533-3.2355-20.125-3.649-30.223-0.1596-4.0481 2.9816-7.4577 7.0225-7.6246 4.0554-0.19588 7.4505 2.9816 7.6174 7.0297 0.32646 7.9802 1.2042 16.019 2.6117 23.933l0.85606 3.9683c7.153 35.519-5.5861 72.161-33.255 95.617-1.3711 1.168-3.0542 1.7411-4.7301 1.7411" fill="#d94c4c"/>
 <path d="m436.88 247.39c-3.5692 0-6.696-2.6189-7.2401-6.2535-0.98665-6.667-2.1402-13.421-3.4387-20.11l-0.68918-3.3299c-19.272-95.458-112.52-157.48-207.94-138.22-35.548 7.1748-67.548 24.767-92.526 50.885-24.42 25.53-40.51 57.356-46.539 92.025-0.68919 3.99-4.4761 6.667-8.4662 5.9633-3.99-0.6892-6.6597-4.4834-5.9633-8.4735 6.522-37.55 23.941-72.009 50.384-99.65 27.06-28.293 61.715-47.352 100.21-55.121 101.48-20.48 200.77 43.97 223.99 144.26l0.0871 7e-3 1.1244 5.4265c1.6178 8.0237 3.0397 16.164 4.2294 24.18 0.59489 4.0045-2.1692 7.7334-6.1737 8.3284l-1.0809 0.0798" fill="#d94c4c"/>
 <path d="m426.42 432.64c-0.62391 0-1.2623-0.0798-1.8935-0.24666-3.9102-1.0446-6.2317-5.0638-5.1872-8.9741 12.55-47.105 17.361-95.653 14.284-144.29-0.25391-4.0408 2.8148-7.5158 6.8557-7.7771 4.0263-0.21764 7.5158 2.8148 7.7698 6.8557 3.1703 50.231-1.7992 100.35-14.755 149-0.87781 3.2791-3.8377 5.4411-7.0732 5.4411" fill="#d94c4c"/>
 <path d="m27.123 356.33c-1.7847 0-3.5692-0.64566-4.9768-1.9515-2.9672-2.7568-3.1413-7.3925-0.39175-10.36 11.295-12.202 16.381-28.968 13.82-45.283l-0.47876-2.2726c-11.709-58.107-0.10201-117.28 32.675-166.66 32.784-49.361 82.816-83.001 140.87-94.717 24.376-4.9187 49.121-5.7384 73.54-2.4376 4.0118 0.54411 6.8193 4.2366 6.2825 8.2486-0.5441 4.0118-4.2367 6.8266-8.2413 6.2825-22.802-3.0832-45.908-2.3215-68.68 2.278-54.239 10.94-100.96 42.353-131.57 88.467-29.898 45.017-40.932 98.781-31.247 151.81l0.79802 3.7942c4.36 21.626-2.0023 44.217-17.028 60.438-1.4436 1.5526-3.4097 2.3433-5.3757 2.3433" fill="#d94c4c"/>
 <path d="m468.76 375.18-0.91409-0.0581c-4.0118-0.50056-6.8628-4.1569-6.3623-8.176 6.2462-50.217 4.5268-101-5.1001-151.05l-0.89958-4.2512c-14.827-73.57-68.44-133.53-139.94-156.47-3.8595-1.2405-5.9779-5.3685-4.7446-9.2207 1.2332-3.8522 5.3612-5.9779 9.2134-4.7446 74.527 23.912 130.92 85.38 148.5 161.31h0.0943l1.313 6.239c10.679 52.966 12.731 106.8 6.1156 160.02-0.46429 3.7071-3.62 6.4204-7.2619 6.4204" fill="#d94c4c"/>
</svg>
