<?xml version="1.0" encoding="UTF-8"?>
<svg version="1.0" viewBox="0 0 500 132.43" xmlns="http://www.w3.org/2000/svg">
 <path d="m368.4 9.487c0-5.2381 4.354-9.487 9.7252-9.487h112.15c5.371 0 9.7252 4.2489 9.7252 9.487v113.46c0 5.2399-4.3542 9.487-9.7252 9.487h-112.15c-5.3712 0-9.7252-4.2471-9.7252-9.487z" fill="#006699"/>
 <path d="m0 110.93h54.922v-18.031h-35.046v-68.793h-19.875v86.823z" fill="#000000"/>
 <path d="m82.727 110.93v-59.801h-19.876v59.801zm-9.9386-67.966c6.9316 0 11.246-4.5922 11.246-10.335-0.12918-5.8663-4.3144-10.329-11.114-10.329-6.8003 0-11.246 4.463-11.246 10.329 0 5.7424 4.3135 10.335 10.984 10.335h0.12918z" fill="#000000"/>
 <path d="m91.955 110.93h19.876v-33.396c0-1.7873 0.12918-3.5729 0.65494-4.8506 1.436-3.5693 4.7065-7.2679 10.198-7.2679 7.1934 0 10.071 5.4858 10.071 13.52v31.995h19.875v-34.29c0-18.369-9.8073-26.916-22.885-26.916-10.722 0-15.431 5.9937-18.047 10.076h0.13272v-8.6712h-19.876c0.26102 5.6115 0 59.801 0 59.801z" fill="#000000"/>
 <path d="m180.68 24.111h-19.878v86.823h19.878v-19.388l4.9677-6.2539 15.562 25.642h24.453l-26.152-37.121 22.885-25.256h-23.929s-16.346 22.596-17.785 25.276v-49.721z" fill="#000000"/>
 <path d="m278.82 85.99c0.26102-1.536 0.65424-4.4825 0.65424-7.8129 0-15.459-7.8476-31.153-28.507-31.153-22.101 0-32.299 17.479-32.299 33.331 0 19.607 12.423 31.853 34.131 31.853 8.6312 0 16.607-1.2741 23.147-3.9534l-2.6164-13.127c-5.3607 1.7785-10.853 2.6668-17.652 2.6668-9.2845 0-17.391-3.81-18.047-11.933l41.192 0.12387zm-41.321-13.447c0.52275-5.1036 3.9229-12.632 12.423-12.632 9.0209 0 11.115 8.0394 11.115 12.632z" fill="#000000"/>
 <path d="m328.53 24.111v30.055h-0.26102c-2.8774-4.2064-8.894-7.013-16.868-7.013-15.301 0-28.769 12.246-28.64 33.165 0 19.392 12.162 32.02 27.33 32.02 8.2382 0 16.084-3.5729 20.007-10.462h0.39321l0.78447 9.0587h17.655c-0.26191-4.21-0.52541-11.481-0.52541-18.624v-68.2h-19.875zm0 59.143c0 1.529-0.13095 3.0615-0.39321 4.3356-1.1752 5.4858-5.8844 9.3118-11.637 9.3118-8.2389 0-13.6-6.6326-13.6-17.093 0-9.8214 4.5778-17.73 13.73-17.73 6.1452 0 10.461 4.2082 11.639 9.4374 0.26102 1.1503 0.26102 2.4262 0.26102 3.5729z" fill="#000000"/>
 <path d="m408.29 110.86v-59.803h-19.876v59.803zm-9.9388-67.968c6.9316 0 11.246-4.5922 11.246-10.331-0.12919-5.8681-4.3144-10.333-11.115-10.333-6.7994 0-11.245 4.4648-11.245 10.333 0 5.7389 4.3135 10.331 10.984 10.331h0.12918z" fill="#ffffff"/>
 <path d="m419.29 110.86h19.876v-33.396c0-1.7873 0.12919-3.5729 0.65406-4.8506 1.4369-3.5711 4.7076-7.2696 10.199-7.2696 7.1926 0 10.07 5.4841 10.07 13.523v31.993h19.876v-34.29c0-18.369-9.8064-26.916-22.885-26.916-10.723 0-15.431 5.9937-18.047 10.076h0.13272v-8.6729h-19.876c0.26085 5.6115 0 59.803 0 59.803z" fill="#ffffff"/>
</svg>
