<?xml version="1.0" encoding="UTF-8" standalone="no"?>
<svg
   xmlns:dc="http://purl.org/dc/elements/1.1/"
   xmlns:cc="http://creativecommons.org/ns#"
   xmlns:rdf="http://www.w3.org/1999/02/22-rdf-syntax-ns#"
   xmlns:svg="http://www.w3.org/2000/svg"
   xmlns="http://www.w3.org/2000/svg"
   height="132.43721"
   width="500"
   id="svg2"
   viewBox="0 0 500 132.43721"
   version="1.1">
  <metadata
     id="metadata32">
    <rdf:RDF>
      <cc:Work
         rdf:about="">
        <dc:format>image/svg+xml</dc:format>
        <dc:type
           rdf:resource="http://purl.org/dc/dcmitype/StillImage" />
        <dc:title></dc:title>
      </cc:Work>
    </rdf:RDF>
  </metadata>
  <defs
     id="defs30" />
  <g
     id="g4"
     transform="matrix(1.000016,0,0,1.000016,-96.27212,-367.37335)">
    <g
       id="g6"
       transform="matrix(1.7696,0,0,-1.7696,41.144,545.03)">
      <path
         style="fill:#006699"
         id="path8"
         d="m 239.33,95.036 c 0,2.96 2.4604,5.361 5.4956,5.361 l 63.376,0 c 3.0351,0 5.4956,-2.401 5.4956,-5.361 l 0,-64.117 c 0,-2.961 -2.4605,-5.361 -5.4956,-5.361 l -63.376,0 c -3.0352,0 -5.4956,2.4 -5.4956,5.361 l 0,64.117 z" />
      <g
         style="fill-rule:evenodd"
         id="g10">
        <path
           id="path12"
           d="m 31.152,37.709 31.036,0 0,10.189 -19.804,0 0,38.874 -11.231,0 0,-49.063 z" />
        <path
           id="path14"
           d="m 77.9,37.709 0,33.793 -11.232,0 0,-33.793 11.232,0 z m -5.6162,38.407 c 3.917,0 6.355,2.595 6.355,5.84 -0.073,3.315 -2.438,5.837 -6.2803,5.837 -3.8428,0 -6.355,-2.522 -6.355,-5.837 0,-3.245 2.4375,-5.84 6.207,-5.84 l 0.073,0 z" />
        <path
           id="path16"
           d="m 83.115,37.709 11.232,0 0,18.872 c 0,1.01 0.073,2.019 0.3701,2.741 0.8115,2.017 2.6596,4.107 5.7627,4.107 4.0649,0 5.6909,-3.1 5.6909,-7.64 l 0,-18.08 11.231,0 0,19.377 c 0,10.38 -5.542,15.21 -12.932,15.21 -6.0591,0 -8.7197,-3.387 -10.198,-5.694 l 0.075,0 0,4.9 -11.232,0 c 0.1475,-3.171 0,-33.793 0,-33.793 z" />
        <path
           id="path18"
           d="m 133.25,86.772 -11.233,0 0,-49.063 11.233,0 0,10.956 2.8072,3.534 8.7939,-14.49 13.818,0 -14.778,20.977 12.932,14.272 -13.522,0 c 0,0 -9.2368,-12.769 -10.05,-14.283 l 0,28.097 z" />
        <path
           id="path20"
           d="m 188.71,51.805 c 0.1475,0.868 0.3697,2.533 0.3697,4.415 0,8.736 -4.4346,17.604 -16.109,17.604 -12.489,0 -18.252,-9.877 -18.252,-18.835 0,-11.08 7.02,-18 19.287,-18 4.8774,0 9.3843,0.72 13.08,2.234 l -1.4785,7.418 c -3.0293,-1.005 -6.1329,-1.507 -9.9751,-1.507 -5.2466,0 -9.8277,2.153 -10.198,6.743 l 23.277,-0.07 z m -23.35,7.599 c 0.2954,2.884 2.2168,7.138 7.02,7.138 5.0976,0 6.2807,-4.543 6.2807,-7.138 l -13.301,0 z" />
        <path
           id="path22"
           d="m 216.8,86.772 0,-16.984 -0.1475,0 c -1.626,2.377 -5.0259,3.963 -9.5322,3.963 -8.6465,0 -16.257,-6.92 -16.184,-18.741 0,-10.958 6.8726,-18.094 15.444,-18.094 4.6553,0 9.0889,2.019 11.306,5.912 l 0.2222,0 0.4433,-5.119 9.9766,0 c -0.148,2.379 -0.2969,6.488 -0.2969,10.524 l 0,38.539 -11.231,0 z m 0,-33.421 c 0,-0.864 -0.074,-1.73 -0.2222,-2.45 -0.6641,-3.1 -3.3252,-5.262 -6.5757,-5.262 -4.6557,0 -7.6855,3.748 -7.6855,9.659 0,5.55 2.5869,10.019 7.7588,10.019 3.4726,0 5.9116,-2.378 6.5771,-5.333 0.1475,-0.65 0.1475,-1.371 0.1475,-2.019 l 0,-4.614 z" />
      </g>
      <path
         style="fill:#ffffff;fill-rule:evenodd"
         id="path24"
         d="m 261.87,37.749 0,33.794 -11.232,0 0,-33.794 11.232,0 z m -5.6163,38.408 c 3.917,0 6.355,2.595 6.355,5.838 -0.073,3.316 -2.438,5.839 -6.2807,5.839 -3.8423,0 -6.3545,-2.523 -6.3545,-5.839 0,-3.243 2.4375,-5.838 6.207,-5.838 l 0.073,0 z" />
      <path
         style="fill:#ffffff;fill-rule:evenodd"
         id="path26"
         d="m 268.09,37.749 11.232,0 0,18.872 c 0,1.01 0.073,2.019 0.3696,2.741 0.812,2.018 2.6602,4.108 5.7632,4.108 4.0645,0 5.6904,-3.099 5.6904,-7.642 l 0,-18.079 11.232,0 0,19.377 c 0,10.38 -5.5415,15.21 -12.932,15.21 -6.0596,0 -8.7198,-3.387 -10.198,-5.694 l 0.075,0 0,4.901 -11.232,0 c 0.1474,-3.171 0,-33.794 0,-33.794 z" />
    </g>
  </g>
</svg>
